<mxfile host="65bd71144e">
    <diagram id="GU3V6tTCmIdrLSniCgcH" name="Страница 1">
        <mxGraphModel dx="3103" dy="3395" grid="1" gridSize="10" guides="1" tooltips="1" connect="1" arrows="1" fold="1" page="1" pageScale="1" pageWidth="827" pageHeight="1169" math="0" shadow="0">
            <root>
                <mxCell id="0"/>
                <mxCell id="1" parent="0"/>
                <mxCell id="34" value="" style="rounded=1;whiteSpace=wrap;html=1;arcSize=3;" parent="1" vertex="1">
                    <mxGeometry x="180" y="-120" width="2570" height="2690" as="geometry"/>
                </mxCell>
                <mxCell id="13" value="&lt;font style=&quot;font-size: 24px;&quot;&gt;Сценарий:&lt;/font&gt;" style="text;html=1;align=center;verticalAlign=middle;resizable=0;points=[];autosize=1;strokeColor=none;fillColor=none;fontSize=24;" parent="1" vertex="1">
                    <mxGeometry x="490" y="-50" width="140" height="40" as="geometry"/>
                </mxCell>
                <mxCell id="14" value="&lt;font style=&quot;font-size: 24px;&quot;&gt;Пользователь:&lt;/font&gt;" style="text;html=1;align=center;verticalAlign=middle;resizable=0;points=[];autosize=1;strokeColor=none;fillColor=none;fontSize=24;" parent="1" vertex="1">
                    <mxGeometry x="960" y="-50" width="190" height="40" as="geometry"/>
                </mxCell>
                <mxCell id="15" value="&lt;span style=&quot;font-size: 24px;&quot;&gt;JTBD:&lt;/span&gt;" style="text;html=1;align=center;verticalAlign=middle;resizable=0;points=[];autosize=1;strokeColor=none;fillColor=none;fontSize=24;" parent="1" vertex="1">
                    <mxGeometry x="1350" y="-50" width="90" height="40" as="geometry"/>
                </mxCell>
                <mxCell id="16" value="&lt;span style=&quot;font-size: 24px;&quot;&gt;Тип:&lt;/span&gt;" style="text;html=1;align=center;verticalAlign=middle;resizable=0;points=[];autosize=1;strokeColor=none;fillColor=none;fontSize=24;" parent="1" vertex="1">
                    <mxGeometry x="2460" y="-50" width="70" height="40" as="geometry"/>
                </mxCell>
                <mxCell id="17" value="&lt;font style=&quot;font-size: 24px;&quot;&gt;&lt;b style=&quot;font-size: 24px;&quot;&gt;AS IS&lt;/b&gt;&lt;/font&gt;" style="text;html=1;align=center;verticalAlign=middle;resizable=0;points=[];autosize=1;strokeColor=none;fillColor=none;fontSize=24;" parent="1" vertex="1">
                    <mxGeometry x="2520" y="-50" width="90" height="40" as="geometry"/>
                </mxCell>
                <mxCell id="19" value="&lt;span style=&quot;font-size: 24px;&quot;&gt;Механики и&lt;br style=&quot;font-size: 24px;&quot;&gt;&amp;nbsp;интерфейсы&lt;br style=&quot;font-size: 24px;&quot;&gt;&lt;/span&gt;" style="text;html=1;align=center;verticalAlign=middle;resizable=0;points=[];autosize=1;strokeColor=none;fillColor=none;fontSize=24;" parent="1" vertex="1">
                    <mxGeometry x="225" y="1730" width="170" height="70" as="geometry"/>
                </mxCell>
                <mxCell id="20" value="&lt;span style=&quot;font-size: 24px;&quot;&gt;Бизнес-процессы&lt;br style=&quot;font-size: 24px;&quot;&gt;&lt;/span&gt;" style="text;html=1;align=center;verticalAlign=middle;resizable=0;points=[];autosize=1;strokeColor=none;fillColor=none;fontSize=24;" parent="1" vertex="1">
                    <mxGeometry x="200" y="1220" width="220" height="40" as="geometry"/>
                </mxCell>
                <mxCell id="27" value="&lt;span style=&quot;font-size: 24px;&quot;&gt;Путь&lt;br style=&quot;font-size: 24px;&quot;&gt;пользователя&lt;br style=&quot;font-size: 24px;&quot;&gt;&lt;/span&gt;" style="text;html=1;align=center;verticalAlign=middle;resizable=0;points=[];autosize=1;strokeColor=none;fillColor=none;fontSize=24;" parent="1" vertex="1">
                    <mxGeometry x="215" y="185" width="180" height="70" as="geometry"/>
                </mxCell>
                <mxCell id="29" value="&lt;span style=&quot;font-size: 24px;&quot;&gt;Возможности&lt;br style=&quot;font-size: 24px;&quot;&gt;&lt;/span&gt;" style="text;html=1;align=center;verticalAlign=middle;resizable=0;points=[];autosize=1;strokeColor=none;fillColor=none;fontSize=24;" parent="1" vertex="1">
                    <mxGeometry x="245" y="2190" width="170" height="40" as="geometry"/>
                </mxCell>
                <mxCell id="31" value="&lt;span style=&quot;font-size: 24px;&quot;&gt;Боль \ выгода&lt;br style=&quot;font-size: 24px;&quot;&gt;&lt;/span&gt;" style="text;html=1;align=center;verticalAlign=middle;resizable=0;points=[];autosize=1;strokeColor=none;fillColor=none;fontSize=24;" parent="1" vertex="1">
                    <mxGeometry x="235" y="810" width="180" height="40" as="geometry"/>
                </mxCell>
                <mxCell id="33" value="&lt;font style=&quot;font-size: 24px;&quot;&gt;&lt;b style=&quot;font-size: 24px;&quot;&gt;Клиент&lt;/b&gt;&lt;/font&gt;" style="text;html=1;align=center;verticalAlign=middle;resizable=0;points=[];autosize=1;strokeColor=none;fillColor=none;fontSize=24;" parent="1" vertex="1">
                    <mxGeometry x="1141" y="-50" width="110" height="40" as="geometry"/>
                </mxCell>
                <mxCell id="4" value="&lt;font style=&quot;font-size: 26px;&quot;&gt;Service blueprint&lt;/font&gt;" style="swimlane;html=1;childLayout=stackLayout;resizeParent=1;resizeParentMax=0;horizontal=1;startSize=50;horizontalStack=0;whiteSpace=wrap;fillColor=#d5e8d4;strokeColor=#82b366;" parent="1" vertex="1">
                    <mxGeometry x="450" y="20" width="2215" height="2345" as="geometry">
                        <mxRectangle x="100" y="560" width="60" height="30" as="alternateBounds"/>
                    </mxGeometry>
                </mxCell>
                <mxCell id="5" value="" style="swimlane;html=1;startSize=20;horizontal=0;whiteSpace=wrap;fillColor=#d5e8d4;strokeColor=#82b366;" parent="4" vertex="1">
                    <mxGeometry y="50" width="2215" height="430" as="geometry"/>
                </mxCell>
                <mxCell id="60" value="" style="edgeStyle=none;html=1;" parent="5" source="52" target="59" edge="1">
                    <mxGeometry relative="1" as="geometry"/>
                </mxCell>
                <UserObject label="Создает заявку на продукт" link="https://vscode.dev/github/Heritager-tech/Heritager-tech/blob/main/%D0%94%D0%B5%D1%80%D0%B5%D0%B2%D0%BE_%D0%B1%D0%B8%D0%B7%D0%BD%D0%B5%D1%81-%D0%BF%D1%80%D0%BE%D1%86%D0%B5%D1%81%D1%81%D0%BE%D0%B2_%D1%82%D0%B5%D1%81%D1%82%D0%BE%D0%B2%D0%BE%D0%B5/%D0%A8%D0%B0%D0%B1%D0%BB%D0%BE%D0%BD%20User%20Story%20map.drawio" id="52">
                    <mxCell style="points=[[0.25,0,0],[0.5,0,0],[0.75,0,0],[1,0.25,0],[1,0.5,0],[1,0.75,0],[0.75,1,0],[0.5,1,0],[0.25,1,0],[0,0.75,0],[0,0.5,0],[0,0.25,0]];shape=mxgraph.bpmn.task;whiteSpace=wrap;rectStyle=rounded;size=10;html=1;container=1;expand=0;collapsible=0;taskMarker=abstract;fontSize=26;" parent="5" vertex="1">
                        <mxGeometry x="100" y="125" width="270" height="170" as="geometry"/>
                    </mxCell>
                </UserObject>
                <mxCell id="62" value="" style="edgeStyle=none;html=1;" parent="5" source="59" target="61" edge="1">
                    <mxGeometry relative="1" as="geometry"/>
                </mxCell>
                <mxCell id="59" value="Созвон с менеджером" style="points=[[0.25,0,0],[0.5,0,0],[0.75,0,0],[1,0.25,0],[1,0.5,0],[1,0.75,0],[0.75,1,0],[0.5,1,0],[0.25,1,0],[0,0.75,0],[0,0.5,0],[0,0.25,0]];shape=mxgraph.bpmn.task;whiteSpace=wrap;rectStyle=rounded;size=10;html=1;container=1;expand=0;collapsible=0;taskMarker=abstract;fontSize=26;" parent="5" vertex="1">
                    <mxGeometry x="540" y="125" width="270" height="170" as="geometry"/>
                </mxCell>
                <mxCell id="61" value="Подписание договора (онлайн или на месте)" style="points=[[0.25,0,0],[0.5,0,0],[0.75,0,0],[1,0.25,0],[1,0.5,0],[1,0.75,0],[0.75,1,0],[0.5,1,0],[0.25,1,0],[0,0.75,0],[0,0.5,0],[0,0.25,0]];shape=mxgraph.bpmn.task;whiteSpace=wrap;rectStyle=rounded;size=10;html=1;container=1;expand=0;collapsible=0;taskMarker=abstract;fontSize=26;" parent="5" vertex="1">
                    <mxGeometry x="950" y="125" width="270" height="170" as="geometry"/>
                </mxCell>
                <mxCell id="53" value="" style="swimlane;html=1;startSize=20;horizontal=0;whiteSpace=wrap;fillColor=#d5e8d4;strokeColor=#82b366;" parent="4" vertex="1">
                    <mxGeometry y="480" width="2215" height="110" as="geometry"/>
                </mxCell>
                <mxCell id="6" value="" style="swimlane;html=1;startSize=20;horizontal=0;verticalAlign=middle;whiteSpace=wrap;fillColor=#fff2cc;strokeColor=#d6b656;" parent="4" vertex="1">
                    <mxGeometry y="590" width="2215" height="390" as="geometry"/>
                </mxCell>
                <mxCell id="30" value="" style="swimlane;html=1;startSize=20;horizontal=0;verticalAlign=middle;whiteSpace=wrap;fillColor=#d5e8d4;strokeColor=#82b366;" parent="4" vertex="1">
                    <mxGeometry y="980" width="2215" height="500" as="geometry"/>
                </mxCell>
                <mxCell id="51" value="Знакомство с услугой" style="points=[[0.25,0,0],[0.5,0,0],[0.75,0,0],[1,0.25,0],[1,0.5,0],[1,0.75,0],[0.75,1,0],[0.5,1,0],[0.25,1,0],[0,0.75,0],[0,0.5,0],[0,0.25,0]];shape=mxgraph.bpmn.task;whiteSpace=wrap;rectStyle=rounded;size=10;html=1;container=1;expand=0;collapsible=0;taskMarker=abstract;isLoopSub=1;fillColor=#d5e8d4;strokeColor=#82b366;fontSize=26;" parent="30" vertex="1">
                    <mxGeometry x="130" y="150" width="200" height="130" as="geometry"/>
                </mxCell>
                <mxCell id="7" value="" style="swimlane;html=1;startSize=20;horizontal=0;fillColor=#dae8fc;strokeColor=#6c8ebf;" parent="4" vertex="1">
                    <mxGeometry y="1480" width="2215" height="570" as="geometry"/>
                </mxCell>
                <mxCell id="25" value="" style="swimlane;html=1;startSize=20;horizontal=0;fillColor=#fff2cc;strokeColor=#d6b656;" parent="4" vertex="1">
                    <mxGeometry y="2050" width="2215" height="295" as="geometry"/>
                </mxCell>
                <mxCell id="36" value="&lt;span style=&quot;font-size: 24px;&quot;&gt;&lt;b&gt;Когда&lt;/b&gt; клиенту нужен товар, он &lt;b&gt;хочет&lt;/b&gt;&amp;nbsp;оформить покупку, &lt;b&gt;чтобы&lt;/b&gt; реализовать его&lt;/span&gt;" style="text;html=1;align=center;verticalAlign=middle;resizable=0;points=[];autosize=1;strokeColor=none;fillColor=none;fontSize=24;" parent="1" vertex="1">
                    <mxGeometry x="1450" y="-50" width="930" height="40" as="geometry"/>
                </mxCell>
                <mxCell id="37" value="&lt;font style=&quot;font-size: 24px;&quot;&gt;&lt;b&gt;Покупка товара&lt;/b&gt;&lt;/font&gt;" style="text;html=1;align=center;verticalAlign=middle;resizable=0;points=[];autosize=1;strokeColor=none;fillColor=none;fontSize=24;" parent="1" vertex="1">
                    <mxGeometry x="625" y="-50" width="210" height="40" as="geometry"/>
                </mxCell>
                <mxCell id="55" value="&lt;span style=&quot;font-size: 24px;&quot;&gt;Время&lt;br style=&quot;font-size: 24px;&quot;&gt;&lt;/span&gt;" style="text;html=1;align=center;verticalAlign=middle;resizable=0;points=[];autosize=1;strokeColor=none;fillColor=none;fontSize=24;" parent="1" vertex="1">
                    <mxGeometry x="275" y="550" width="100" height="40" as="geometry"/>
                </mxCell>
            </root>
        </mxGraphModel>
    </diagram>
</mxfile>